<svg width="20" height="19" viewBox="0 0 20 19" fill="none" xmlns="http://www.w3.org/2000/svg">
<path fill-rule="evenodd" clip-rule="evenodd" d="M6.83337 17C7.10952 17 7.33337 16.7314 7.33337 16.4V13.6C7.33337 13.2686 7.10952 13 6.83337 13C6.55723 13 6.33337 13.2686 6.33337 13.6V16.4C6.33337 16.7314 6.55723 17 6.83337 17Z" fill="#4A4A4A"/>
<path fill-rule="evenodd" clip-rule="evenodd" d="M9.16663 17C9.44277 17 9.66663 16.7314 9.66663 16.4V13.6C9.66663 13.2686 9.44277 13 9.16663 13C8.89048 13 8.66663 13.2686 8.66663 13.6V16.4C8.66663 16.7314 8.89048 17 9.16663 17Z" fill="#4A4A4A"/>
<path fill-rule="evenodd" clip-rule="evenodd" d="M11.5 17C11.7761 17 12 16.7314 12 16.4V13.6C12 13.2686 11.7761 13 11.5 13C11.2239 13 11 13.2686 11 13.6V16.4C11 16.7314 11.2239 17 11.5 17Z" fill="#4A4A4A"/>
<path fill-rule="evenodd" clip-rule="evenodd" d="M4.5 17C4.77614 17 5 16.7314 5 16.4V13.6C5 13.2686 4.77614 13 4.5 13C4.22386 13 4 13.2686 4 13.6V16.4C4 16.7314 4.22386 17 4.5 17Z" fill="#4A4A4A"/>
<path fill-rule="evenodd" clip-rule="evenodd" d="M14.9285 7.9517H14.236V7.92884L10.6241 4.15338C10.4087 3.94356 10.0731 3.94976 9.86488 4.16738C9.65669 4.385 9.65076 4.73588 9.85148 4.96104L12.7125 7.9517H3.30934L6.17039 4.96104C6.3711 4.73588 6.36518 4.385 6.15699 4.16738C5.9488 3.94976 5.61313 3.94356 5.39772 4.15338L1.78588 7.92884V7.9517H1.09339C0.489529 7.9517 0 8.46341 0 9.09463V10.6185C0 11.2498 0.489529 11.7615 1.09339 11.7615C1.08726 11.8312 1.08726 11.9013 1.09339 11.971L2.18679 18.0666C2.28334 18.6078 2.73528 19.0002 3.26196 19H12.738C13.2647 19.0002 13.7167 18.6078 13.8132 18.0666L14.9066 11.971C14.9127 11.9013 14.9127 11.8312 14.9066 11.7615C15.5105 11.7615 16 11.2498 16 10.6185V9.09463C16.0001 8.47223 15.5238 7.96415 14.9285 7.9517ZM12.7417 17.8571H3.2656L2.17221 11.7615H13.8351L12.7417 17.8571ZM14.9285 10.6185H1.07882V9.09463H14.9285V10.6185Z" fill="#4A4A4A"/>
<path fill-rule="evenodd" clip-rule="evenodd" d="M17 6.5C18.6569 6.5 20 5.15685 20 3.5C20 1.84315 18.6569 0.5 17 0.5C15.3431 0.5 14 1.84315 14 3.5C14 5.15685 15.3431 6.5 17 6.5Z" fill="#E25F38"/>
</svg>
